<svg width="1466" height="327" viewBox="0 0 1466 327" fill="none" xmlns="http://www.w3.org/2000/svg">
<g clip-path="url(#clip0_2273_1075)">
<path d="M69.6601 126.21L0.100098 166.24V85.49L69.6601 45.79V126.21Z" fill="#FFE300"/>
<path d="M0.100098 166.24L69.6601 206.28L139.22 166.24L69.6601 126.21L0.100098 166.24Z" fill="#73A428"/>
<path d="M69.6602 45.7902L139.22 85.4901L208.77 45.7902L139.22 5.41016L69.6602 45.7902Z" fill="#FFA194"/>
<path d="M69.6602 287.04L139.22 327.07L208.77 287.04L139.22 247L69.6602 287.04Z" fill="#FF5044"/>
<path d="M139.22 166.24L208.77 206.28L278.33 166.58L208.77 126.21L139.22 166.24Z" fill="#00509F"/>
<path d="M208.77 126.21L139.22 166.24V85.49L208.77 45.79V126.21Z" fill="#1565B4"/>
<path d="M139.22 247L69.6602 287.04V206.28L139.22 166.24V247Z" fill="#884048"/>
<path d="M278.33 247L208.77 287.04V206.28L278.33 166.58V247Z" fill="#C6BCB5"/>
<path d="M0.100098 247L69.6601 287.04V206.28L0.100098 166.24V247Z" fill="#72ABDB"/>
<path d="M69.6602 126.21L139.22 166.24V85.49L69.6602 45.79V126.21Z" fill="#FF9800"/>
<path d="M208.77 126.21L278.33 166.58V85.83L208.77 45.79V126.21Z" fill="#004787"/>
<path d="M139.22 247L208.77 287.04V206.28L139.22 166.24V247Z" fill="#D53B32"/>
<path d="M432.76 7.87988L488.83 148.81H458.04L444.18 113.99L444.05 113.67H392.92L378.95 148.81H348L404.07 7.87988H432.76ZM432.41 85.1799L418.58 49.5999L404.26 85.1799H432.4H432.41Z" fill="#FFFBF5"/>
<path d="M489.55 105.5C489.68 118.1 494.61 129 504.21 137.92C513.95 146.97 525.99 151.55 540 151.55C554.01 151.55 566.21 146.99 575.96 137.98C585.67 128.99 590.61 118.12 590.61 105.68C590.61 93.24 585.68 82.13 575.97 74.03C567.23 66.91 555.69 62.45 541.64 60.79C528.68 59.26 522.12 54.74 522.12 47.35C522.12 43.36 523.99 39.96 527.69 37.25C531.07 34.75 535.21 33.49 540 33.49C544.79 33.49 548.97 34.75 552.45 37.24C555.92 39.95 557.74 43.42 557.87 47.55H586.51C586.39 35.7 581.89 25.57 573.13 17.44C564.23 9.19 553.08 5 540.01 5C526.94 5 516.14 9.22999 507.1 17.58C498.08 25.92 493.5 35.94 493.5 47.35C493.5 59.78 498.1 69.82 507.15 77.18C515.03 83.55 525.54 87.53 538.38 89.01C554.04 90.82 561.98 96.43 561.98 105.68C561.98 110.61 559.78 114.79 555.43 118.11C551.12 121.4 545.93 123.07 540.01 123.07C534.09 123.07 528.98 121.43 524.86 118.18C520.57 114.84 518.32 110.57 518.18 105.5H489.54" fill="#FFFBF5"/>
<path d="M602.59 105.5C602.72 118.1 607.66 129 617.25 137.92C627 146.97 639.04 151.55 653.05 151.55C667.06 151.55 679.26 146.99 689.01 137.98C698.73 128.99 703.66 118.12 703.66 105.68C703.66 93.24 698.73 82.13 689.01 74.03C680.28 66.91 668.73 62.45 654.68 60.79C641.73 59.26 635.17 54.74 635.17 47.35C635.17 43.36 637.04 39.96 640.74 37.25C644.11 34.75 648.26 33.49 653.05 33.49C657.84 33.49 662.02 34.75 665.5 37.24C668.96 39.95 670.79 43.42 670.93 47.55H699.57C699.44 35.7 694.94 25.57 686.18 17.44C677.28 9.19 666.14 5 653.06 5C639.98 5 629.19 9.22999 620.15 17.58C611.13 25.92 606.55 35.94 606.55 47.35C606.55 59.78 611.14 69.82 620.2 77.18C628.08 83.55 638.59 87.53 651.43 89.01C667.09 90.82 675.04 96.43 675.04 105.68C675.04 110.61 672.82 114.79 668.48 118.11C664.17 121.4 658.98 123.07 653.06 123.07C647.14 123.07 642.03 121.43 637.91 118.18C633.62 114.84 631.37 110.57 631.23 105.5H602.59Z" fill="#FFFBF5"/>
<path d="M720.48 148.82H812.66V120.32H749.11V92.5901H798.53V64.0901H749.11V36.3701H812.66V7.87012H720.48V148.8V148.82Z" fill="#FFFBF5"/>
<path d="M1019.58 148.82V7.89014H1063.83C1075.13 7.89014 1084.86 11.8801 1092.77 19.7601C1100.68 27.6401 1104.7 37.3301 1104.7 48.5601C1104.7 56.7601 1102.44 64.2301 1098.01 70.7601L1097.76 71.1401L1098.1 71.4401C1108.11 80.2001 1113.18 91.3801 1113.18 104.65C1113.18 116.82 1108.81 127.34 1100.21 135.91C1091.59 144.49 1081.02 148.84 1068.8 148.84H1019.6L1019.58 148.82ZM1079.87 115.68C1081.36 114.26 1082.55 112.54 1083.36 110.64C1084.16 108.74 1084.57 106.7 1084.55 104.63C1084.55 100.38 1082.97 96.6601 1079.87 93.5801C1078.44 92.0901 1076.71 90.9201 1074.8 90.1201C1072.9 89.3201 1070.85 88.9201 1068.78 88.9301H1048.21V120.31H1068.77C1073.04 120.31 1076.78 118.75 1079.86 115.67L1079.87 115.68ZM1072.46 57.0801C1074.86 54.7401 1076.08 51.8701 1076.08 48.5601C1076.09 46.9601 1075.78 45.3701 1075.16 43.9001C1074.54 42.4201 1073.62 41.0901 1072.47 39.9801C1071.35 38.8301 1070.01 37.9201 1068.53 37.3001C1067.05 36.6801 1065.46 36.3701 1063.85 36.3901H1048.23V60.6001H1063.85C1067.17 60.6001 1070.06 59.4201 1072.46 57.0901V57.0801Z" fill="#FFFBF5"/>
<path d="M1130.82 148.82H1223V120.32H1159.46V7.87988H1130.82V148.81V148.82Z" fill="#FFFBF5"/>
<path d="M1239.19 148.82H1331.36V120.32H1267.81V92.5901H1317.23V64.0901H1267.81V36.3701H1331.36V7.87012H1239.19V148.8V148.82Z" fill="#FFFBF5"/>
<path d="M1352.91 148.82V7.89014H1395.47C1414.91 7.89014 1431.76 14.8401 1445.52 28.5401C1459.29 42.2401 1466.27 59.0001 1466.27 78.3501C1466.27 97.7001 1459.29 114.46 1445.52 128.17C1431.75 141.88 1414.91 148.82 1395.47 148.82H1352.91ZM1425.27 108.02C1433.49 99.8601 1437.65 89.8701 1437.65 78.3501C1437.65 66.8301 1433.47 56.8601 1425.27 48.6901C1417.06 40.5201 1407.04 36.3901 1395.47 36.3901H1381.54V120.32H1395.47C1407.04 120.32 1417.07 116.19 1425.27 108.02Z" fill="#FFFBF5"/>
<path d="M352.44 322.43V181.5H396.69C407.99 181.5 417.72 185.49 425.63 193.37C433.54 201.25 437.56 210.94 437.56 222.17C437.56 230.37 435.3 237.84 430.86 244.37L430.61 244.75L430.95 245.05C440.95 253.8 446.02 264.98 446.02 278.25C446.02 290.42 441.65 300.94 433.05 309.52C424.43 318.09 413.86 322.44 401.63 322.44H352.44V322.43ZM412.73 289.29C415.83 286.2 417.41 282.49 417.41 278.24C417.41 273.99 415.83 270.27 412.73 267.19C411.29 265.71 409.57 264.53 407.66 263.73C405.75 262.93 403.71 262.53 401.64 262.54H381.07V293.93H401.63C405.9 293.93 409.63 292.37 412.72 289.28L412.73 289.29ZM405.32 230.69C407.72 228.35 408.93 225.48 408.93 222.17C408.93 218.86 407.71 215.98 405.32 213.59C404.2 212.44 402.86 211.53 401.38 210.91C399.9 210.29 398.31 209.98 396.7 210H381.08V234.21H396.7C398.3 234.23 399.88 233.93 401.37 233.32C402.85 232.72 404.2 231.82 405.33 230.69H405.32Z" fill="#FFFBF5"/>
<path d="M529.87 322.43L493.15 274V322.43H464.51V181.5H515.49C528.17 181.5 539.15 186.02 548.1 194.92C557.04 203.82 561.56 214.74 561.56 227.38C561.56 237.53 558.46 246.76 552.34 254.83C546.22 262.91 535.87 267.82 525.66 268.83L524.96 269.04L565.08 322.44H529.86L529.87 322.43ZM527.86 239.6C531.23 236.2 532.95 232.08 532.95 227.36C532.95 222.64 531.23 218.42 527.86 215.05C526.25 213.41 524.32 212.12 522.19 211.25C520.06 210.38 517.78 209.95 515.48 209.99H493.14V244.75H515.48C520.32 244.75 524.47 243.03 527.85 239.6H527.86Z" fill="#FFFBF5"/>
<path d="M678.15 322.43L664.3 287.61L664.17 287.29H613.05L599.07 322.44H568.12L624.19 181.5H652.88L708.95 322.43H678.15ZM638.69 223.22L624.4 258.8H652.48L638.69 223.22Z" fill="#FFFBF5"/>
<path d="M805.45 322.43H833.93V181.5H805.29V269.18L804.35 267.7L749.14 181.49H720.57V322.42H749.21V234.58L750.15 236.06L805.46 322.42L805.45 322.43Z" fill="#FFFBF5"/>
<path d="M860.79 322.41V181.48H903.35C922.8 181.48 939.64 188.43 953.41 202.13C967.17 215.84 974.16 232.6 974.16 251.95C974.16 271.3 967.18 288.06 953.41 301.76C939.63 315.47 922.8 322.41 903.35 322.41H860.79ZM933.16 281.61C941.37 273.45 945.54 263.46 945.54 251.95C945.54 240.44 941.38 230.45 933.16 222.28C924.95 214.12 914.92 209.98 903.34 209.98H889.4V293.93H903.34C914.92 293.93 924.96 289.79 933.16 281.62V281.61Z" fill="#FFFBF5"/>
<path d="M985.92 279.11C986.05 291.71 990.99 302.61 1000.58 311.53C1010.32 320.58 1022.37 325.16 1036.37 325.16C1050.37 325.16 1062.58 320.6 1072.33 311.59C1082.05 302.6 1086.98 291.73 1086.98 279.29C1086.98 266.85 1082.05 255.74 1072.34 247.63C1063.61 240.52 1052.06 236.06 1038.01 234.41C1025.06 232.87 1018.49 228.35 1018.49 220.96C1018.49 216.97 1020.36 213.57 1024.06 210.85C1027.43 208.36 1031.58 207.1 1036.37 207.1C1041.16 207.1 1045.34 208.36 1048.82 210.85C1052.29 213.57 1054.11 217.03 1054.25 221.17H1082.88C1082.75 209.32 1078.25 199.19 1069.49 191.06C1060.59 182.81 1049.45 178.62 1036.37 178.62C1023.29 178.62 1012.5 182.85 1003.46 191.2C994.44 199.54 989.86 209.56 989.86 220.97C989.86 233.4 994.45 243.44 1003.5 250.79C1011.38 257.16 1021.89 261.15 1034.73 262.63C1050.39 264.44 1058.34 270.05 1058.34 279.3C1058.34 284.23 1056.12 288.41 1051.78 291.73C1047.47 295.01 1042.28 296.68 1036.36 296.68C1030.44 296.68 1025.33 295.04 1021.21 291.79C1016.92 288.45 1014.67 284.18 1014.53 279.11H985.89" fill="#FFFBF5"/>
<path d="M835.43 148.82H864.07V64.9601L887.12 120.38L902.23 81.9801L871.3 7.89014H835.42V148.82H835.43Z" fill="#FFFBF5"/>
<path d="M927.62 148.82L962.51 64.9701V148.82H991.14V7.89014H955.43L896.84 148.82H927.63H927.62Z" fill="#FFFBF5"/>
</g>
<defs>
<clipPath id="clip0_2273_1075">
<rect width="1466" height="327" fill="white"/>
</clipPath>
</defs>
</svg>
